<svg xmlns="http://www.w3.org/2000/svg" xmlns:xlink="http://www.w3.org/1999/xlink" width="1600" zoomAndPan="magnify" viewBox="0 0 1200 299.999988" height="400" preserveAspectRatio="xMidYMid meet" version="1.0"><defs><g/><clipPath id="17d9537532"><path d="M 0.800781 0.640625 L 727.039062 0.640625 L 727.039062 159 L 0.800781 159 Z M 0.800781 0.640625 " clip-rule="nonzero"/></clipPath><clipPath id="8995aa3777"><rect x="0" width="728" y="0" height="159"/></clipPath><clipPath id="57f09f125f"><path d="M 205 136 L 525 136 L 525 210.398438 L 205 210.398438 Z M 205 136 " clip-rule="nonzero"/></clipPath><clipPath id="48caf957bd"><rect x="0" width="320" y="0" height="75"/></clipPath><clipPath id="4b3844437e"><rect x="0" width="728" y="0" height="211"/></clipPath><clipPath id="79e17b50c9"><path d="M 105.609375 68.828125 L 292.359375 68.828125 L 292.359375 266.078125 L 105.609375 266.078125 Z M 105.609375 68.828125 " clip-rule="nonzero"/></clipPath></defs><g transform="matrix(1, 0, 0, 1, 334, 56)"><g clip-path="url(#4b3844437e)"><g clip-path="url(#17d9537532)"><g><g clip-path="url(#8995aa3777)"><g fill="#09090b" fill-opacity="1"><g transform="translate(1.568312, 126.190056)"><g><path d="M 48.65625 -90.578125 C 60.207031 -90.578125 69.257812 -87.816406 75.8125 -82.296875 C 82.375 -76.773438 85.65625 -69.179688 85.65625 -59.515625 C 85.65625 -49.859375 82.375 -42.289062 75.8125 -36.8125 C 69.257812 -31.332031 60.207031 -28.59375 48.65625 -28.59375 L 24.328125 -28.59375 L 24.328125 0 L 14.75 0 L 14.75 -90.578125 Z M 48.390625 -37 C 57.359375 -37 64.210938 -38.960938 68.953125 -42.890625 C 73.703125 -46.816406 76.078125 -52.359375 76.078125 -59.515625 C 76.078125 -66.847656 73.703125 -72.476562 68.953125 -76.40625 C 64.210938 -80.332031 57.359375 -82.296875 48.390625 -82.296875 L 24.328125 -82.296875 L 24.328125 -37 Z M 48.390625 -37 "/></g></g></g><g fill="#09090b" fill-opacity="1"><g transform="translate(94.465929, 126.190056)"><g><path d="M 21.609375 -54.734375 C 23.765625 -59.304688 26.976562 -62.753906 31.25 -65.078125 C 35.519531 -67.410156 40.800781 -68.578125 47.09375 -68.578125 L 47.09375 -59.65625 L 44.90625 -59.78125 C 37.738281 -59.78125 32.128906 -57.578125 28.078125 -53.171875 C 24.023438 -48.773438 22 -42.609375 22 -34.671875 L 22 0 L 12.8125 0 L 12.8125 -68.0625 L 21.609375 -68.0625 Z M 21.609375 -54.734375 "/></g></g></g><g fill="#09090b" fill-opacity="1"><g transform="translate(146.348859, 126.190056)"><g><path d="M 12.8125 -68.0625 L 22 -68.0625 L 22 0 L 12.8125 0 Z M 17.46875 -82.9375 C 15.570312 -82.9375 13.972656 -83.582031 12.671875 -84.875 C 11.378906 -86.175781 10.734375 -87.726562 10.734375 -89.53125 C 10.734375 -91.257812 11.378906 -92.769531 12.671875 -94.0625 C 13.972656 -95.363281 15.570312 -96.015625 17.46875 -96.015625 C 19.363281 -96.015625 20.957031 -95.382812 22.25 -94.125 C 23.539062 -92.875 24.1875 -91.390625 24.1875 -89.671875 C 24.1875 -87.773438 23.539062 -86.175781 22.25 -84.875 C 20.957031 -83.582031 19.363281 -82.9375 17.46875 -82.9375 Z M 17.46875 -82.9375 "/></g></g></g><g fill="#09090b" fill-opacity="1"><g transform="translate(181.153111, 126.190056)"><g><path d="M 97.6875 -68.578125 C 106.226562 -68.578125 112.9375 -66.117188 117.8125 -61.203125 C 122.6875 -56.285156 125.125 -49.039062 125.125 -39.46875 L 125.125 0 L 115.9375 0 L 115.9375 -38.5625 C 115.9375 -45.632812 114.234375 -51.023438 110.828125 -54.734375 C 107.421875 -58.441406 102.609375 -60.296875 96.390625 -60.296875 C 89.316406 -60.296875 83.753906 -58.117188 79.703125 -53.765625 C 75.648438 -49.410156 73.625 -43.394531 73.625 -35.71875 L 73.625 0 L 64.4375 0 L 64.4375 -38.5625 C 64.4375 -45.632812 62.734375 -51.023438 59.328125 -54.734375 C 55.921875 -58.441406 51.066406 -60.296875 44.765625 -60.296875 C 37.773438 -60.296875 32.234375 -58.117188 28.140625 -53.765625 C 24.046875 -49.410156 22 -43.394531 22 -35.71875 L 22 0 L 12.8125 0 L 12.8125 -68.0625 L 21.609375 -68.0625 L 21.609375 -55.640625 C 24.023438 -59.773438 27.390625 -62.960938 31.703125 -65.203125 C 36.015625 -67.453125 40.972656 -68.578125 46.578125 -68.578125 C 52.273438 -68.578125 57.210938 -67.367188 61.390625 -64.953125 C 65.578125 -62.535156 68.707031 -58.957031 70.78125 -54.21875 C 73.28125 -58.695312 76.878906 -62.207031 81.578125 -64.75 C 86.273438 -67.300781 91.644531 -68.578125 97.6875 -68.578125 Z M 97.6875 -68.578125 "/></g></g></g><g fill="#09090b" fill-opacity="1"><g transform="translate(318.4294, 126.190056)"><g><path d="M 72.078125 -31.1875 L 15.140625 -31.1875 C 15.660156 -24.113281 18.378906 -18.394531 23.296875 -14.03125 C 28.210938 -9.675781 34.421875 -7.5 41.921875 -7.5 C 46.148438 -7.5 50.03125 -8.253906 53.5625 -9.765625 C 57.101562 -11.273438 60.164062 -13.5 62.75 -16.4375 L 67.9375 -10.484375 C 64.914062 -6.859375 61.140625 -4.097656 56.609375 -2.203125 C 52.078125 -0.304688 47.09375 0.640625 41.65625 0.640625 C 34.675781 0.640625 28.488281 -0.84375 23.09375 -3.8125 C 17.707031 -6.789062 13.503906 -10.910156 10.484375 -16.171875 C 7.460938 -21.429688 5.953125 -27.382812 5.953125 -34.03125 C 5.953125 -40.675781 7.394531 -46.628906 10.28125 -51.890625 C 13.175781 -57.148438 17.144531 -61.242188 22.1875 -64.171875 C 27.238281 -67.109375 32.910156 -68.578125 39.203125 -68.578125 C 45.503906 -68.578125 51.15625 -67.109375 56.15625 -64.171875 C 61.15625 -61.242188 65.078125 -57.171875 67.921875 -51.953125 C 70.773438 -46.734375 72.203125 -40.757812 72.203125 -34.03125 Z M 39.203125 -60.6875 C 32.648438 -60.6875 27.148438 -58.59375 22.703125 -54.40625 C 18.265625 -50.226562 15.742188 -44.773438 15.140625 -38.046875 L 63.40625 -38.046875 C 62.800781 -44.773438 60.273438 -50.226562 55.828125 -54.40625 C 51.390625 -58.59375 45.847656 -60.6875 39.203125 -60.6875 Z M 39.203125 -60.6875 "/></g></g></g><g fill="#09090b" fill-opacity="1"><g transform="translate(396.577223, 126.190056)"><g><path d="M 108.8125 -90.578125 L 108.8125 0 L 99.625 0 L 99.625 -72.453125 L 64.046875 -11.515625 L 59.515625 -11.515625 L 23.9375 -72.078125 L 23.9375 0 L 14.75 0 L 14.75 -90.578125 L 22.640625 -90.578125 L 61.984375 -23.421875 L 100.921875 -90.578125 Z M 108.8125 -90.578125 "/></g></g></g><g fill="#09090b" fill-opacity="1"><g transform="translate(520.138844, 126.190056)"><g><path d="M 36.625 -68.578125 C 45.5 -68.578125 52.304688 -66.351562 57.046875 -61.90625 C 61.796875 -57.46875 64.171875 -50.894531 64.171875 -42.1875 L 64.171875 0 L 55.375 0 L 55.375 -10.609375 C 53.3125 -7.078125 50.269531 -4.316406 46.25 -2.328125 C 42.238281 -0.347656 37.472656 0.640625 31.953125 0.640625 C 24.367188 0.640625 18.332031 -1.164062 13.84375 -4.78125 C 9.351562 -8.40625 7.109375 -13.195312 7.109375 -19.15625 C 7.109375 -24.925781 9.203125 -29.578125 13.390625 -33.109375 C 17.578125 -36.648438 24.238281 -38.421875 33.375 -38.421875 L 54.984375 -38.421875 L 54.984375 -42.5625 C 54.984375 -48.4375 53.34375 -52.90625 50.0625 -55.96875 C 46.789062 -59.03125 42.007812 -60.5625 35.71875 -60.5625 C 31.40625 -60.5625 27.265625 -59.847656 23.296875 -58.421875 C 19.328125 -56.992188 15.914062 -55.03125 13.0625 -52.53125 L 8.921875 -59.390625 C 12.378906 -62.328125 16.519531 -64.59375 21.34375 -66.1875 C 26.175781 -67.78125 31.269531 -68.578125 36.625 -68.578125 Z M 33.375 -6.59375 C 38.550781 -6.59375 42.992188 -7.78125 46.703125 -10.15625 C 50.421875 -12.53125 53.179688 -15.957031 54.984375 -20.4375 L 54.984375 -31.578125 L 33.640625 -31.578125 C 21.992188 -31.578125 16.171875 -27.519531 16.171875 -19.40625 C 16.171875 -15.4375 17.679688 -12.304688 20.703125 -10.015625 C 23.722656 -7.734375 27.945312 -6.59375 33.375 -6.59375 Z M 33.375 -6.59375 "/></g></g></g><g fill="#09090b" fill-opacity="1"><g transform="translate(596.475286, 126.190056)"><g><path d="M 21.609375 -54.734375 C 23.765625 -59.304688 26.976562 -62.753906 31.25 -65.078125 C 35.519531 -67.410156 40.800781 -68.578125 47.09375 -68.578125 L 47.09375 -59.65625 L 44.90625 -59.78125 C 37.738281 -59.78125 32.128906 -57.578125 28.078125 -53.171875 C 24.023438 -48.773438 22 -42.609375 22 -34.671875 L 22 0 L 12.8125 0 L 12.8125 -68.0625 L 21.609375 -68.0625 Z M 21.609375 -54.734375 "/></g></g></g><g fill="#09090b" fill-opacity="1"><g transform="translate(648.35823, 126.190056)"><g><path d="M 38.046875 -34.15625 L 22 -19.40625 L 22 0 L 12.8125 0 L 12.8125 -96.015625 L 22 -96.015625 L 22 -30.921875 L 62.625 -68.0625 L 74.015625 -68.0625 L 44.90625 -40.234375 L 76.734375 0 L 65.46875 0 Z M 38.046875 -34.15625 "/></g></g></g></g></g></g><g clip-path="url(#57f09f125f)"><g transform="matrix(1, 0, 0, 1, 205, 136)"><g clip-path="url(#48caf957bd)"><g fill="#3b82f6" fill-opacity="1"><g transform="translate(1.508515, 58.613827)"><g><path d="M 33.78125 -11.421875 L 9.953125 -11.421875 L 4.828125 0 L 0.125 0 L 19.671875 -42.765625 L 24.125 -42.765625 L 43.6875 0 L 38.921875 0 Z M 32.140625 -15.09375 L 21.875 -38.0625 L 11.609375 -15.09375 Z M 32.140625 -15.09375 "/></g></g></g><g fill="#3b82f6" fill-opacity="1"><g transform="translate(48.364823, 58.613827)"><g><path d="M 22.96875 -42.765625 C 28.425781 -42.765625 32.703125 -41.460938 35.796875 -38.859375 C 38.890625 -36.253906 40.4375 -32.671875 40.4375 -28.109375 C 40.4375 -23.546875 38.890625 -19.96875 35.796875 -17.375 C 32.703125 -14.789062 28.425781 -13.5 22.96875 -13.5 L 11.484375 -13.5 L 11.484375 0 L 6.96875 0 L 6.96875 -42.765625 Z M 22.84375 -17.46875 C 27.082031 -17.46875 30.320312 -18.394531 32.5625 -20.25 C 34.800781 -22.101562 35.921875 -24.722656 35.921875 -28.109375 C 35.921875 -31.566406 34.800781 -34.222656 32.5625 -36.078125 C 30.320312 -37.929688 27.082031 -38.859375 22.84375 -38.859375 L 11.484375 -38.859375 L 11.484375 -17.46875 Z M 22.84375 -17.46875 "/></g></g></g><g fill="#3b82f6" fill-opacity="1"><g transform="translate(95.282231, 58.613827)"><g><path d="M 22.96875 -42.765625 C 28.425781 -42.765625 32.703125 -41.460938 35.796875 -38.859375 C 38.890625 -36.253906 40.4375 -32.671875 40.4375 -28.109375 C 40.4375 -23.546875 38.890625 -19.96875 35.796875 -17.375 C 32.703125 -14.789062 28.425781 -13.5 22.96875 -13.5 L 11.484375 -13.5 L 11.484375 0 L 6.96875 0 L 6.96875 -42.765625 Z M 22.84375 -17.46875 C 27.082031 -17.46875 30.320312 -18.394531 32.5625 -20.25 C 34.800781 -22.101562 35.921875 -24.722656 35.921875 -28.109375 C 35.921875 -31.566406 34.800781 -34.222656 32.5625 -36.078125 C 30.320312 -37.929688 27.082031 -38.859375 22.84375 -38.859375 L 11.484375 -38.859375 L 11.484375 -17.46875 Z M 22.84375 -17.46875 "/></g></g></g><g fill="#3b82f6" fill-opacity="1"><g transform="translate(142.199639, 58.613827)"><g><path d="M 33.78125 -11.421875 L 9.953125 -11.421875 L 4.828125 0 L 0.125 0 L 19.671875 -42.765625 L 24.125 -42.765625 L 43.6875 0 L 38.921875 0 Z M 32.140625 -15.09375 L 21.875 -38.0625 L 11.609375 -15.09375 Z M 32.140625 -15.09375 "/></g></g></g><g fill="#3b82f6" fill-opacity="1"><g transform="translate(189.055946, 58.613827)"><g><path d="M 36.171875 0 L 26.390625 -13.75 C 25.296875 -13.625 24.15625 -13.5625 22.96875 -13.5625 L 11.484375 -13.5625 L 11.484375 0 L 6.96875 0 L 6.96875 -42.765625 L 22.96875 -42.765625 C 28.425781 -42.765625 32.703125 -41.460938 35.796875 -38.859375 C 38.890625 -36.253906 40.4375 -32.671875 40.4375 -28.109375 C 40.4375 -24.765625 39.59375 -21.941406 37.90625 -19.640625 C 36.21875 -17.335938 33.804688 -15.675781 30.671875 -14.65625 L 41.109375 0 Z M 22.84375 -17.40625 C 27.082031 -17.40625 30.320312 -18.34375 32.5625 -20.21875 C 34.800781 -22.09375 35.921875 -24.722656 35.921875 -28.109375 C 35.921875 -31.566406 34.800781 -34.222656 32.5625 -36.078125 C 30.320312 -37.929688 27.082031 -38.859375 22.84375 -38.859375 L 11.484375 -38.859375 L 11.484375 -17.40625 Z M 22.84375 -17.40625 "/></g></g></g><g fill="#3b82f6" fill-opacity="1"><g transform="translate(236.278797, 58.613827)"><g><path d="M 37.203125 -3.90625 L 37.203125 0 L 6.96875 0 L 6.96875 -42.765625 L 36.296875 -42.765625 L 36.296875 -38.859375 L 11.484375 -38.859375 L 11.484375 -23.640625 L 33.609375 -23.640625 L 33.609375 -19.796875 L 11.484375 -19.796875 L 11.484375 -3.90625 Z M 37.203125 -3.90625 "/></g></g></g><g fill="#3b82f6" fill-opacity="1"><g transform="translate(280.202797, 58.613827)"><g><path d="M 6.96875 -42.765625 L 11.484375 -42.765625 L 11.484375 -3.90625 L 35.4375 -3.90625 L 35.4375 0 L 6.96875 0 Z M 6.96875 -42.765625 "/></g></g></g></g></g></g></g></g><g clip-path="url(#79e17b50c9)"><path fill="#09090b" d="M 150.949219 129.976562 C 150.550781 130.105469 147.964844 131.429688 143.171875 133.953125 C 139.523438 135.878906 136.242188 137.148438 133.402344 134.199219 C 132.945312 133.726562 132.0625 132.464844 130.75 130.414062 C 123.179688 118.601562 118.351562 111.113281 116.273438 107.953125 C 113.554688 103.8125 115.347656 100.996094 118.769531 98.28125 C 130.554688 88.964844 139.914062 81.753906 146.851562 76.648438 C 148.652344 75.320312 151.574219 73.976562 154.074219 73.28125 C 161.441406 71.230469 169.015625 69.746094 176.8125 68.84375 C 177.507812 68.761719 178.203125 69.003906 178.699219 69.496094 C 180.097656 70.863281 181.566406 72.570312 182.957031 73.515625 C 192.632812 80.105469 204.191406 80.382812 214.050781 74.210938 C 215.484375 73.3125 217.183594 71.816406 219.160156 69.730469 C 219.839844 69.003906 220.871094 68.730469 222.238281 68.914062 C 229.65625 69.886719 235.914062 71.0625 241.015625 72.441406 C 246.132812 73.824219 250.753906 76.09375 254.863281 79.230469 C 262.207031 84.839844 268.941406 90.105469 275.058594 95.015625 C 275.550781 95.414062 277.3125 96.808594 280.347656 99.214844 C 283.386719 101.621094 283.859375 104.449219 281.769531 107.699219 C 272.425781 122.261719 267.027344 130.761719 265.578125 133.191406 C 263.765625 136.222656 261.144531 136.941406 257.71875 135.355469 C 254.546875 133.890625 251.007812 132.128906 247.097656 130.066406 C 246.902344 129.957031 246.664062 130.105469 246.664062 130.332031 L 246.664062 136.757812 C 246.664062 137.117188 246.867188 137.445312 247.1875 137.601562 C 254.554688 141.289062 261.433594 144.71875 267.835938 147.878906 C 268.941406 148.421875 270.222656 148.960938 271.6875 149.484375 C 272.21875 149.671875 272.671875 150.015625 273.011719 150.457031 C 276.300781 154.792969 281.769531 161.871094 289.414062 171.679688 C 291.195312 173.964844 292.097656 175.429688 292.121094 176.066406 C 292.242188 178.902344 290.960938 180.132812 288.296875 181.535156 C 283.039062 184.292969 277.007812 187.519531 270.222656 191.203125 C 270.027344 191.3125 269.902344 191.519531 269.902344 191.742188 C 269.863281 207.421875 269.882812 218.136719 269.953125 223.886719 C 269.996094 227.324219 269.015625 229.363281 266.09375 230.925781 C 238.332031 245.695312 216.714844 257.28125 201.25 265.675781 C 199.867188 266.425781 198.460938 266.433594 197.039062 265.6875 C 186.675781 260.277344 176.976562 255.101562 167.949219 250.160156 C 157.351562 244.359375 143.5 237.28125 132.390625 231.390625 C 130.691406 230.488281 129.542969 229.492188 128.945312 228.398438 C 128.457031 227.523438 128.21875 226.03125 128.210938 223.9375 C 128.179688 211.441406 128.222656 200.6875 128.332031 191.660156 C 128.332031 191.515625 128.25 191.375 128.125 191.304688 C 121.949219 187.953125 115.269531 184.386719 108.085938 180.597656 C 106.324219 179.671875 105.523438 178.300781 105.667969 176.488281 C 105.757812 175.421875 106.578125 173.964844 108.132812 172.109375 C 111.914062 167.589844 117.625 160.359375 125.277344 150.417969 C 126.167969 149.257812 128.898438 148.683594 130.113281 148.089844 C 136.558594 144.933594 142.894531 141.65625 149.132812 138.253906 C 149.503906 138.050781 150.160156 137.785156 151.109375 137.453125 C 151.285156 137.390625 151.40625 137.226562 151.40625 137.035156 L 151.359375 130.273438 C 151.359375 130.058594 151.152344 129.914062 150.949219 129.976562 Z M 150.949219 129.976562 " fill-opacity="1" fill-rule="nonzero"/></g><path fill="#fafafa" d="M 199.015625 98.4375 C 211.96875 98.445312 223.714844 89.519531 225.332031 76.3125 C 225.363281 76.085938 225.578125 75.921875 225.8125 75.960938 C 231.386719 76.855469 236.261719 77.839844 240.421875 78.90625 C 245.929688 80.320312 251.109375 84.40625 255.300781 87.707031 C 266.730469 96.703125 273.191406 101.765625 274.667969 102.910156 C 275.242188 103.351562 275.640625 103.710938 275.867188 103.996094 C 276.085938 104.265625 276.101562 104.644531 275.910156 104.941406 L 260.367188 129.125 C 260.203125 129.371094 259.875 129.453125 259.625 129.308594 L 242.824219 119.871094 C 242.742188 119.828125 242.660156 119.808594 242.574219 119.800781 C 241.417969 119.78125 240.648438 120.433594 240.269531 121.746094 C 240.261719 121.777344 240.257812 121.808594 240.257812 121.839844 L 240.257812 162.640625 C 240.257812 162.859375 240.136719 163.0625 239.941406 163.167969 C 231.007812 168.054688 219.101562 174.28125 204.222656 181.847656 C 202.605469 182.667969 200.921875 183.460938 199.167969 184.214844 C 199.121094 184.234375 199.066406 184.242188 198.996094 184.242188 C 198.925781 184.242188 198.871094 184.234375 198.832031 184.214844 C 197.078125 183.460938 195.390625 182.667969 193.777344 181.847656 C 178.894531 174.273438 166.996094 168.042969 158.0625 163.152344 C 157.867188 163.050781 157.75 162.839844 157.75 162.621094 L 157.769531 121.820312 C 157.769531 121.796875 157.761719 121.765625 157.753906 121.726562 C 157.375 120.414062 156.605469 119.769531 155.449219 119.78125 C 155.363281 119.789062 155.28125 119.8125 155.199219 119.851562 L 138.394531 129.28125 C 138.140625 129.429688 137.8125 129.347656 137.648438 129.101562 L 122.121094 104.910156 C 121.929688 104.621094 121.941406 104.234375 122.164062 103.960938 C 122.390625 103.679688 122.789062 103.320312 123.363281 102.878906 C 124.839844 101.742188 131.296875 96.671875 142.738281 87.683594 C 146.929688 84.386719 152.105469 80.304688 157.621094 78.890625 C 161.78125 77.820312 166.648438 76.84375 172.230469 75.945312 C 172.457031 75.910156 172.679688 76.074219 172.703125 76.308594 C 174.320312 89.507812 186.066406 98.4375 199.015625 98.4375 Z M 199.015625 98.4375 " fill-opacity="1" fill-rule="nonzero"/><path fill="#fafafa" d="M 217.707031 79.375 C 217.847656 79.292969 218.011719 79.425781 217.960938 79.578125 C 213.914062 91.046875 200.320312 94.722656 189.988281 90.175781 C 185.550781 88.226562 182.285156 84.714844 180.195312 79.660156 C 180.148438 79.546875 180.277344 79.429688 180.386719 79.496094 C 182.835938 80.851562 184.066406 81.535156 184.074219 81.539062 C 195.441406 87.335938 206.988281 85.894531 217.707031 79.375 Z M 217.707031 79.375 " fill-opacity="1" fill-rule="nonzero"/><path fill="#e5a480" d="M 151.070312 159.484375 L 136.746094 152.199219 C 136.59375 152.121094 136.59375 151.902344 136.753906 151.824219 L 151.09375 144.589844 C 151.234375 144.515625 151.398438 144.617188 151.398438 144.773438 L 151.375 159.300781 C 151.375 159.453125 151.207031 159.550781 151.070312 159.484375 Z M 151.070312 159.484375 " fill-opacity="1" fill-rule="nonzero"/><path fill="#e5a480" d="M 246.789062 144.554688 L 261.191406 151.808594 C 261.328125 151.875 261.328125 152.070312 261.191406 152.148438 L 246.871094 159.550781 C 246.746094 159.617188 246.59375 159.527344 246.59375 159.382812 L 246.519531 144.722656 C 246.511719 144.585938 246.664062 144.492188 246.789062 144.554688 Z M 246.789062 144.554688 " fill-opacity="1" fill-rule="nonzero"/><path fill="#ffd598" d="M 193.484375 189.5625 L 179.21875 210.210938 C 179.054688 210.445312 178.746094 210.523438 178.492188 210.390625 L 113.78125 176.507812 C 113.472656 176.34375 113.382812 175.933594 113.605469 175.664062 L 129.398438 155.816406 C 129.570312 155.601562 129.859375 155.539062 130.097656 155.664062 L 193.28125 188.742188 C 193.578125 188.902344 193.675781 189.285156 193.484375 189.5625 Z M 193.484375 189.5625 " fill-opacity="1" fill-rule="nonzero"/><path fill="#ffd598" d="M 218.855469 210.21875 L 204.816406 189.621094 C 204.609375 189.324219 204.714844 188.914062 205.03125 188.742188 L 268.089844 155.59375 C 268.347656 155.460938 268.671875 155.53125 268.847656 155.765625 L 284.269531 175.636719 C 284.496094 175.941406 284.402344 176.375 284.074219 176.546875 L 219.640625 210.414062 C 219.367188 210.558594 219.027344 210.476562 218.855469 210.21875 Z M 218.855469 210.21875 " fill-opacity="1" fill-rule="nonzero"/><path fill="#e5a480" d="M 202.277344 196.917969 C 204.9375 201.269531 209.070312 207.308594 214.691406 215.054688 C 216.230469 217.183594 217.449219 218.222656 220.113281 216.960938 C 224.070312 215.074219 228.335938 212.921875 232.902344 210.503906 C 239.75 206.875 249.894531 201.507812 263.328125 194.40625 C 263.457031 194.335938 263.613281 194.425781 263.613281 194.570312 C 263.734375 201.691406 263.769531 211.4375 263.734375 223.808594 C 263.726562 224.714844 263.367188 225.324219 262.652344 225.660156 C 259.554688 227.105469 254.707031 229.605469 248.121094 233.171875 C 238.507812 238.375 228.867188 243.5625 219.214844 248.738281 C 212.910156 252.117188 207.398438 255.199219 202.675781 257.980469 C 202.480469 258.09375 202.234375 257.957031 202.234375 257.734375 L 202.234375 196.929688 C 202.234375 196.90625 202.265625 196.898438 202.277344 196.917969 Z M 202.277344 196.917969 " fill-opacity="1" fill-rule="nonzero"/><path fill="#e5a480" d="M 195.871094 257.640625 C 195.871094 257.765625 195.738281 257.84375 195.632812 257.785156 L 135.414062 225.558594 C 134.851562 225.261719 134.507812 224.675781 134.511719 224.042969 L 134.671875 200.265625 L 134.613281 194.855469 C 134.613281 194.707031 134.765625 194.621094 134.890625 194.691406 L 146.160156 200.855469 L 179.671875 217.8125 C 180.28125 218.117188 181.003906 218.007812 181.492188 217.535156 C 182.386719 216.644531 183.355469 215.445312 184.394531 213.929688 C 188.273438 208.257812 192.066406 202.59375 195.769531 196.949219 C 195.820312 196.867188 195.949219 196.90625 195.949219 197 L 195.898438 207.417969 Z M 195.871094 257.640625 " fill-opacity="1" fill-rule="nonzero"/></svg>